<svg id="Layer_1" data-name="Layer 1" xmlns="http://www.w3.org/2000/svg" viewBox="0 0 127.239 47.493"><defs><style>.cls-1{fill:#484748;}</style></defs><title>LandingPageRoxwellLogo</title><path class="cls-1" d="M-5846.269,854.777a9.861,9.861,0,0,1-.46-3.945v-5.045c0-2.982-1.008-4.083-3.3-4.083h-1.744v13.074h-5.046V822.665h7.615c5.229,0,7.478,2.431,7.478,7.386v2.524c0,3.3-1.056,5.459-3.3,6.513,2.523,1.056,3.348,3.487,3.348,6.835v4.955a9.453,9.453,0,0,0,.551,3.9h-5.138Zm-5.5-27.524v9.862h1.973c1.88,0,3.027-.825,3.027-3.394v-3.165c0-2.293-.78-3.3-2.569-3.3h-2.431Z" transform="translate(5856.82 -822.298)"/><path class="cls-1" d="M-5838.8,830.372c0-5.139,2.707-8.074,7.662-8.074s7.66,2.936,7.66,8.074v16.7c0,5.138-2.707,8.074-7.66,8.074s-7.662-2.936-7.662-8.074v-16.7Zm5.046,17.018c0,2.295,1.01,3.165,2.615,3.165s2.614-.87,2.614-3.165V830.05c0-2.293-1.008-3.165-2.614-3.165s-2.615.872-2.615,3.165v17.34Z" transform="translate(5856.82 -822.298)"/><path class="cls-1" d="M-5804.07,822.665l-5.274,15.6,5.641,16.515h-5.321l-4.128-12.707-4.175,12.707h-4.726l5.643-16.515-5.276-15.6h5.231l3.806,11.836,3.9-11.836h4.678Z" transform="translate(5856.82 -822.298)"/><path class="cls-1" d="M-5789.988,837.666l-1.836,17.111h-6.926l-3.578-32.112h4.909l2.707,25.323,2.431-25.323h4.862l2.524,25.506,2.614-25.506h4.4l-3.577,32.112h-6.7Z" transform="translate(5856.82 -822.298)"/><path class="cls-1" d="M-5770.312,836.2h6.926v4.587h-6.926v9.405h8.715v4.587h-13.762V822.665h13.762v4.587h-8.715V836.2Z" transform="translate(5856.82 -822.298)"/><path class="cls-1" d="M-5758.48,822.665h5.046V850.19h8.3v4.587h-13.349V822.665Z" transform="translate(5856.82 -822.298)"/><path class="cls-1" d="M-5742.931,822.665h5.046V850.19h8.3v4.587h-13.349V822.665Z" transform="translate(5856.82 -822.298)"/><path class="cls-1" d="M-5807.929,867.26v0.872a1.437,1.437,0,0,1-1.537,1.65,1.436,1.436,0,0,1-1.537-1.65v-3.414a1.436,1.436,0,0,1,1.537-1.65,1.437,1.437,0,0,1,1.537,1.65v0.639h-0.975v-0.7a0.524,0.524,0,0,0-.534-0.646,0.524,0.524,0,0,0-.534.646V868.2a0.516,0.516,0,0,0,.534.637,0.516,0.516,0,0,0,.534-0.637V867.26h0.975Z" transform="translate(5856.82 -822.298)"/><path class="cls-1" d="M-5804.443,863.143v5.063a0.516,0.516,0,0,0,.534.637,0.516,0.516,0,0,0,.534-0.637v-5.063h0.975v5a1.437,1.437,0,0,1-1.537,1.651,1.437,1.437,0,0,1-1.538-1.651v-5h1.031Z" transform="translate(5856.82 -822.298)"/><path class="cls-1" d="M-5797.667,869.706a2.007,2.007,0,0,1-.094-0.806v-1.031c0-.609-0.206-0.834-0.675-0.834h-0.357v2.672h-1.031v-6.563h1.557a1.321,1.321,0,0,1,1.528,1.509v0.516a1.311,1.311,0,0,1-.675,1.331,1.322,1.322,0,0,1,.684,1.4v1.012a1.933,1.933,0,0,0,.112.8h-1.049Zm-1.125-5.626V866.1h0.4a0.569,0.569,0,0,0,.619-0.694v-0.646c0-.47-0.16-0.676-0.525-0.676h-0.5Z" transform="translate(5856.82 -822.298)"/><path class="cls-1" d="M-5790.844,869.706h-1.04l-0.178-1.191h-1.266l-0.178,1.191h-0.948l1.051-6.563h1.509Zm-2.353-2.081h0.994l-0.5-3.32Z" transform="translate(5856.82 -822.298)"/><path class="cls-1" d="M-5789.149,863.143h3.188v0.937h-1.078v5.626h-1.031V864.08h-1.079v-0.937Z" transform="translate(5856.82 -822.298)"/><path class="cls-1" d="M-5782.606,865.909h1.416v0.937h-1.416v1.923h1.782v0.937h-2.814v-6.563h2.814v0.937h-1.782v1.829Z" transform="translate(5856.82 -822.298)"/><path class="cls-1" d="M-5776.926,863.068a1.427,1.427,0,0,1,1.518,1.65v0.207h-0.975v-0.273c0-.469-0.187-0.646-0.515-0.646s-0.516.178-.516,0.646c0,1.351,2.017,1.6,2.017,3.479a1.437,1.437,0,0,1-1.537,1.65,1.437,1.437,0,0,1-1.539-1.65v-0.4h0.976V868.2a0.516,0.516,0,0,0,.534.637,0.516,0.516,0,0,0,.534-0.637c0-1.351-2.017-1.6-2.017-3.479A1.428,1.428,0,0,1-5776.926,863.068Z" transform="translate(5856.82 -822.298)"/></svg>