<svg id="Layer_1" data-name="Layer 1" xmlns="http://www.w3.org/2000/svg" viewBox="0 0 316.779 39.587"><defs><style>.cls-1,.cls-2{fill:#e8a331;}.cls-2{fill-rule:evenodd;}</style></defs><title>LandingPageRedBullLogo</title><path class="cls-1" d="M-5722.369,662.109a3.47,3.47,0,0,1-4.085-2.066,17.573,17.573,0,0,1-.711-9.023,49.212,49.212,0,0,1,1-4.9,2.26,2.26,0,0,0-1.085-2.783,16.052,16.052,0,0,1-1.324-.995c-0.548.626-1.04,1.292-1.633,1.851-2.5,2.36-4.939,4.811-7.607,6.973a10.168,10.168,0,0,1-4.328,1.887,3.967,3.967,0,0,1-4.8-4.923l0.456,0.986v-2.552c-0.369.445-.569,0.7-0.786,0.944-1.425,1.594-2.8,3.24-4.306,4.754a10.08,10.08,0,0,1-2.583,1.789c-2.749,1.394-5.175.312-5.792-2.7a22.269,22.269,0,0,1-.122-4.43,10.694,10.694,0,0,1,.23-1.52,1.9,1.9,0,0,0-.413.2,35.338,35.338,0,0,1-11.192,7.028,11.147,11.147,0,0,1-5.224.828,5.157,5.157,0,0,1-4.81-6.829,9.737,9.737,0,0,1,3.4-5.42c1.132-.836,2.112-1.879,3.253-2.7a2.718,2.718,0,0,1,1.72-.391A6.6,6.6,0,0,1-5769,639.9c0.95,0.935.958,1.479,0,2.359-0.807.74-1.708,1.377-2.814,2.256,0.152-1.894.754-3.419-.009-5.061a5,5,0,0,0-.957.676c-1.391,1.659-2.776,3.325-4.109,5.03a3.856,3.856,0,0,0-.649,1.49c-0.89,3.9.345,5.114,3.55,4.475a41.311,41.311,0,0,0,7.773-2.7,24.521,24.521,0,0,0,4.187-2.533,7.871,7.871,0,0,0,3.381-4.372c0.49-1.7,1.29-3.3,2.043-5.168a35.741,35.741,0,0,1,2.87,2.2,1.551,1.551,0,0,1,0,1.306,37.1,37.1,0,0,1-2.655,5.961c-1.384,2.174-.639,4.42-0.79,6.629-0.055.8,0.587,1.054,1.285,0.522a15.159,15.159,0,0,0,2.834-2.525c2.438-3.112,4.754-6.321,7.111-9.5,0.277-.374.519-0.774,0.862-1.29,1.323,1.282,3.025,2.152,2.9,4.246a4.262,4.262,0,0,1-.651,1.8,5.5,5.5,0,0,0-.765,4.377,1.964,1.964,0,0,0,2.8,1.552,8.844,8.844,0,0,0,2.478-1.328,45.082,45.082,0,0,0,7.968-8.018,1.533,1.533,0,0,0,.126-2.085,10.262,10.262,0,0,1,.815-12.091,1.382,1.382,0,0,1,1.949-.368,4.306,4.306,0,0,1,2.522,4.064,13.529,13.529,0,0,1-1.331,6.768c-0.658,1.408-.147,2.427,1.186,3.17a14.1,14.1,0,0,1,3.28,2.563,2.571,2.571,0,0,1,.288,2.024c-0.4,1.766-1.058,3.474-1.485,5.236a54.053,54.053,0,0,0-1.207,6.067A4.319,4.319,0,0,0-5722.369,662.109Zm-5.54-24.12c1.031-1.81,1.5-3.994,1.115-5.24C-5727.748,634.382-5728.926,635.85-5727.909,637.989Zm2.241,16.461c-0.265,2.238-.189,2.907.44,3.764Z" transform="translate(5959.741 -622.608)"/><path class="cls-1" d="M-5688.016,631.775c-2,.158-3.807.248-5.6,0.455a10.533,10.533,0,0,1-6.787-1.466c-0.484-.288-1.123-0.58-0.315-1.362,0.961,0.972,2.023.519,3.137,0.27a42.12,42.12,0,0,1,5.007-.828c1.8-.179,3.624-0.207,5.439-0.236a1.573,1.573,0,0,0,1.442-.918c0.9-1.451,1.861-2.859,2.812-4.276a9.621,9.621,0,0,1,.675-0.808c1.036,0.867,1.179,1.515.642,2.591-0.447.9-.888,1.8-1.259,2.548,4.641-.118,9.221-0.236,13.8-0.34a1.274,1.274,0,0,1,.206.386l-5.211.854,0.017,0.242,1.406,0.42c-2.516.44-4.723,0.835-6.933,1.209-1.324.224-2.663,0.373-3.976,0.648a1.532,1.532,0,0,0-1.01.745,70.361,70.361,0,0,0-4.711,22.278,15.828,15.828,0,0,0,.607,4.27,2.019,2.019,0,0,0,2.409,1.754,2.162,2.162,0,0,1-2.922.743,6.563,6.563,0,0,1-3.01-3.046c-1.452-2.791-1.517-5.788-1.254-8.825a10.039,10.039,0,0,0,.07-2.052c-0.227.279-.433,0.58-0.685,0.835a70.342,70.342,0,0,1-5.1,5.019,11.039,11.039,0,0,1-3.968,1.946c-3.773,1.053-6.852-1.246-7.138-5.152-0.025-.348-0.044-0.7-0.093-1.467a11.888,11.888,0,0,0-2.329,1.894c-1.021,1.45-1.714,1.973-2.94,1.707-1.9-.412-2.981-1.492-3.129-3.147a4.534,4.534,0,0,1,.025-0.977,12.457,12.457,0,0,1,8.443-9.543,2.757,2.757,0,0,1,3.125,1.1c0.482-.783.9-1.449,1.3-2.122a0.75,0.75,0,0,1,1.257-.256,2.171,2.171,0,0,0,.183.118c2.022,1.243,2.132,1.483,1.258,3.665-0.769,1.921-1.7,3.781-2.4,5.723a20.993,20.993,0,0,0-1.2,4.6c-0.2,1.712.821,2.627,2.556,2.64a8.42,8.42,0,0,0,4.9-1.582,22.279,22.279,0,0,0,6.735-7.6,18.26,18.26,0,0,0,.68-2.7c1.069-2.931,2.206-5.837,3.322-8.75C-5688.409,632.654-5688.255,632.331-5688.016,631.775Zm-27.025,17.469c4.085-2.035,6.721-4.852,7.493-9.255-2.245-.178-3.708,1.1-4.965,2.712C-5713.958,644.549-5715.162,646.509-5715.041,649.244Zm23.178-1.728c-0.953,2.985-.975,3.857,0,5.895v-5.895Z" transform="translate(5959.741 -622.608)"/><path class="cls-1" d="M-5652.635,639.071c-1.843,1.541-3.552,2.993-5.288,4.413-1.153.944-1.308,1.547-.358,2.7,1.2,1.457,2.482,2.843,3.778,4.214a1.187,1.187,0,0,0,.98.182,62.906,62.906,0,0,0,6.354-1.778,31.032,31.032,0,0,0,4.207-2.322,2.829,2.829,0,0,1-1.48,1.911c-1.39.775-2.833,1.464-4.294,2.1-1.3.563-2.641,1.022-3.978,1.485a0.726,0.726,0,0,0-.589,1.028,4.2,4.2,0,0,1-1.628,4.54,17.245,17.245,0,0,1-7.545,3.209,4.625,4.625,0,0,1-3.709-2.113,1.734,1.734,0,0,1,.244-1.356,14.741,14.741,0,0,1,8.279-5.851c0.313-.092.626-0.185,0.935-0.29a1.976,1.976,0,0,0,.336-0.353l-4.751-4.886c-1.73,1.214-3.49,2.421-5.22,3.669a25.487,25.487,0,0,1-9.187,4.6,9.783,9.783,0,0,1-5.27-.139,4.973,4.973,0,0,1-3.758-4.809c-0.112-5.164,2.2-9.152,6.331-12.1a3.1,3.1,0,0,1,4.031.2,3.233,3.233,0,0,0,.456.28,0.771,0.771,0,0,0,.226-0.03l0.146-1.743a2.758,2.758,0,0,1,3.008,3.818,7.08,7.08,0,0,1-1.9,2.6c-2.141,1.718-4.394,3.339-7.247,3.674a1.337,1.337,0,0,0-1.263,1.108c-0.5,1.705-1,3.451.368,4.951,1.325,1.453,3.162,1.389,4.78.837a35.81,35.81,0,0,0,6.729-2.981,63.8,63.8,0,0,0,6.478-4.772,1.557,1.557,0,0,0,.428-1.269,2.865,2.865,0,0,1,.581-2.557c1.258-1.4,2.564-2.763,3.883-4.109a1.091,1.091,0,0,1,.861-0.312A7.986,7.986,0,0,1-5652.635,639.071Zm-27.3,6.426c2.24-1.692,4.21-3.261,5.514-5.69C-5676.717,640.143-5679.311,642.8-5679.937,645.5Zm18.394,11.583c2.417-.248,4.608-1.831,4.885-3.513C-5658.465,654.475-5660.217,655.292-5661.543,657.079Z" transform="translate(5959.741 -622.608)"/><path class="cls-2" d="M-5862.233,644.987h4.7a2.384,2.384,0,0,0-2.318-2.219,2.473,2.473,0,0,0-2.384,2.219h0Zm2.449-4.9c6.333,0,6.072,6.17,6.072,6.17v0.979h-8.586a2.679,2.679,0,0,0,2.775,2.611,2.989,2.989,0,0,0,2.416-1.534l3.035,1.5a6.171,6.171,0,0,1-5.418,2.971c-6.595,0-6.725-5.484-6.725-6.169s0.1-6.528,6.431-6.528h0Zm14.1,9.238h0c-0.2,0-2.645.033-2.645-2.97a2.855,2.855,0,0,1,2.677-3.1,3.036,3.036,0,0,1,3,3.036,2.96,2.96,0,0,1-3.036,3.035h0Zm2.873-16.885v9.05a7.335,7.335,0,0,0-3.919-1.4c-2.088,0-5.614,1.469-5.614,6.1s3,6.4,5.583,6.4a5.516,5.516,0,0,0,4.016-1.7V652.4h3.721v-19.96h-3.786Zm25.1,8.267h3.787V647.4a2.324,2.324,0,0,0,2.253,2.253,2.134,2.134,0,0,0,2.09-2.253v-6.66h3.819v6.889s0.49,5.386-5.811,5.386-6.137-4.733-6.137-5.582v-6.725h0Zm14.152-8.267h3.738V652.4h-3.738v-19.96h0Zm6.349,0h3.689V652.4h-3.689v-19.96h0Zm-28.091,16.624h-3.541V636.581h1.893s2.572-.194,2.572,2.051a1.857,1.857,0,0,1-2.046,2.046h-1.178v3.364h2.3a2.4,2.4,0,0,1,2.524,2.5c0,2.21-2.523,2.522-2.523,2.522h0Zm3.183-7.084a5.134,5.134,0,0,0,1.73-3.895c0-2.551-1.853-4.851-5.8-4.851h-6.607V652.4h8.138s5.833-.066,5.833-5.336c0-3.06-1.188-4.232-3.3-5.083h0Zm-57.749-9.155V652.4h3.95V636.565h1.861s2.905-.131,2.905,2.514a2.473,2.473,0,0,1-2.579,2.579h-0.947v4.505l3.951,6.241h4.635l-5.517-8a5.07,5.07,0,0,0,4.537-5.321c0-4.929-3.428-6.249-8-6.249h-4.8Z" transform="translate(5959.741 -622.608)"/><path class="cls-2" d="M-5935.331,638.691a0.528,0.528,0,0,1,.042-0.543c0.229-.351.443,0.032,0.443,0.032a3.4,3.4,0,0,1,.206,2.75,3.949,3.949,0,0,0-.691-2.238h0Zm6.81,7.293a1.766,1.766,0,0,0-.29-1.3c-0.121-.1-0.6-0.622-0.6-0.622a0.236,0.236,0,0,0-.129-0.135,0.445,0.445,0,0,0-.227.22c-0.342.659-.682,0.579-0.682,0.579a0.569,0.569,0,0,1,.078-0.254c0.093-.176.49-0.963,0.49-0.963,0.05-.115.1-0.267,0.1-0.267,0.33-.511.64-0.122,0.64-0.122a12.726,12.726,0,0,0,.878,1.153,0.785,0.785,0,0,1,.18.4c0.172,1.208-.433,1.306-0.433,1.306h0Zm-1.948,3.078c-0.14,0-.176-0.055-0.159-0.209a0.968,0.968,0,0,1,.438-0.615c0.646-.386.724,0,0.724,0a0.59,0.59,0,0,1-.427.776,3.855,3.855,0,0,1-.577.048h0Zm-28.086,2a0.262,0.262,0,0,1,.065.309,6,6,0,0,0-.343,1.316s-0.8.142-.907-0.251a0.63,0.63,0,0,1,.109-0.372,1.364,1.364,0,0,0,.17-0.581s-0.012-.945.6-0.695a1.122,1.122,0,0,1,.306.273h0Zm0.972-1.568a0.594,0.594,0,0,1,.5-0.132,0.247,0.247,0,0,1,.152.417,4.794,4.794,0,0,1-.666.786,0.593,0.593,0,0,1-.813-0.065,0.273,0.273,0,0,1,.1-0.492,4.087,4.087,0,0,0,.731-0.515h0Zm4.668-5.911a5.293,5.293,0,0,0,.486,2.631,0.855,0.855,0,0,1-.018,1.086l-0.965.561a0.918,0.918,0,0,1-.56.064,0.929,0.929,0,0,0-.793.115,7.972,7.972,0,0,1-.389.922,2.914,2.914,0,0,1-1.167,1.333,1.116,1.116,0,0,0-.755.635,0.726,0.726,0,0,1-.561.368,0.968,0.968,0,0,0-.464.71,3.315,3.315,0,0,0-.1.711,2.057,2.057,0,0,1,.786.05,0.936,0.936,0,0,0,1.1-.372s0.659-1.129,1.147-.959a1.708,1.708,0,0,0,1.675-.388,2.779,2.779,0,0,1,2.3-.826,3.824,3.824,0,0,0,1.988-.043s0.956-.5,1.314-0.623a0.716,0.716,0,0,0,.484-0.609,4.648,4.648,0,0,1,.461-0.9l-0.723-.008a3.514,3.514,0,0,1-1.767,1.432,3.751,3.751,0,0,1-1.829.046,3.641,3.641,0,0,0-3.292,1.266,0.454,0.454,0,0,1-.511.183,4.185,4.185,0,0,1,2.718-1.794,3.6,3.6,0,0,1,1.121-.047,4.139,4.139,0,0,0,3.682-2.4s-0.126-2.111.43-2.611c0,0,.215-0.066.173,0.343,0,0-.383,2.212.336,2.64a1.594,1.594,0,0,0,1.189.206,6.277,6.277,0,0,1,2.122-.117,8.95,8.95,0,0,0,2.72.187,1.86,1.86,0,0,1-.263-1.1s0.18-.428.387-0.153a3.442,3.442,0,0,0,1.806,2.078,1.961,1.961,0,0,1,1.161,1.927,6.052,6.052,0,0,1-1.746.761,0.643,0.643,0,0,1-.773-0.252s-0.755-1.616-1.412-1.566l-1.234.1a0.243,0.243,0,0,0-.111.445,8.711,8.711,0,0,1,.6.9,0.34,0.34,0,0,0,.447.226s0.551-.273.861,0.751a1.61,1.61,0,0,0,.765.676,1.176,1.176,0,0,0,.872-0.087,20.938,20.938,0,0,0,2.393-1.013,1.159,1.159,0,0,1,.79-0.128,0.794,0.794,0,0,0,.863-0.337l0.632-.977a1.061,1.061,0,0,0,.12-0.543,0.784,0.784,0,0,0-.2-0.6,1.265,1.265,0,0,1-.276-0.435l-0.45-1.058a1.466,1.466,0,0,0-.383-0.4l-0.6.044a10.043,10.043,0,0,0,.716,1.487,2.37,2.37,0,0,1,.389,1.025,0.843,0.843,0,0,1-.137.4s-0.139.222-.195,0.33a1.525,1.525,0,0,1-.33.483,1.87,1.87,0,0,1-.318.157s-0.111.031-.029-0.168a3.218,3.218,0,0,0,.315-1.088,0.72,0.72,0,0,0-.215-0.626,11.226,11.226,0,0,1-.748-1.343,2.057,2.057,0,0,0-.315-0.484,0.269,0.269,0,0,1,.14-0.441,6.826,6.826,0,0,0,1.085-.321,1.45,1.45,0,0,0,.729-1.055,6.523,6.523,0,0,0,.39-1.738,2.843,2.843,0,0,1-.461,3.015,2.164,2.164,0,0,0,1.383,0s1.219-.178,1.454-0.243c0,0,.306-0.074.131,0.143a2.488,2.488,0,0,0-.4.866,0.647,0.647,0,0,1-.247.432,1.957,1.957,0,0,0-.754.95s-0.149.447,0.158,0.34a0.561,0.561,0,0,1,.562,0s0.043,0.02-.117.2a1.4,1.4,0,0,0-.448.848,2.178,2.178,0,0,0,.224.741,0.471,0.471,0,0,0,.484.178,0.244,0.244,0,0,1,.22-0.021,1.971,1.971,0,0,0,.529-0.133s0.58-.159.774-0.228a4.149,4.149,0,0,1,1.1-.246,1.945,1.945,0,0,1,.539.034,1.942,1.942,0,0,0,1.539-.575s0.469-.371.628-0.011a3.047,3.047,0,0,0,2.942,1.11,4.082,4.082,0,0,1-1.822-1.406,3.374,3.374,0,0,0-.808-1.644s-0.232-.317-0.008-0.4c0,0,.129-0.1.412,0.187a4.937,4.937,0,0,1,.98,1.323,2.034,2.034,0,0,0,2.184.9,3.545,3.545,0,0,1-1.487-1.118,3.69,3.69,0,0,0-1.282-1.718,3.7,3.7,0,0,0-.5-1.73s-0.235-1.04-.3-1.283a8.537,8.537,0,0,1-.247-1.166,3.3,3.3,0,0,0-.687-2.122,6.469,6.469,0,0,0-1.318-1.686s-0.61-.754-1.063-1.215a10.919,10.919,0,0,0-1.9-1.613,8.408,8.408,0,0,1-1.021-.889s-2.295-1.652-3.953-.327a8.244,8.244,0,0,1-2.1,1.02,4.188,4.188,0,0,0-2.8,1.593,0.944,0.944,0,0,1-.864.348,3.488,3.488,0,0,0-3.021,1.5,3.2,3.2,0,0,1-1.773.722,3.944,3.944,0,0,0-3.173,1.277s-3.157,2.754-5.039.968c0,0-.975-0.924.14-2.6a11.833,11.833,0,0,1,1.914-1.745,1.5,1.5,0,0,0,.53-1.762,1.6,1.6,0,0,0-1.7-1.063,5.218,5.218,0,0,1-2.585-1.285s-0.831,2.928,2.431,2.878c0,0,.85.126,0.553,0.8a2.515,2.515,0,0,1-.976.787,2.968,2.968,0,0,0-1.429,1.863,2.625,2.625,0,0,0,1.431,3.477,6.127,6.127,0,0,0,2.973.059h0Z" transform="translate(5959.741 -622.608)"/><path class="cls-2" d="M-5910.5,638.691a0.528,0.528,0,0,0-.042-0.543c-0.229-.351-0.442.032-0.442,0.032a3.4,3.4,0,0,0-.207,2.75,3.945,3.945,0,0,1,.691-2.238h0Zm-6.81,7.293a1.764,1.764,0,0,1,.289-1.3c0.122-.1.6-0.622,0.6-0.622a0.237,0.237,0,0,1,.129-0.135,0.447,0.447,0,0,1,.227.22c0.341,0.659.682,0.579,0.682,0.579a0.57,0.57,0,0,0-.078-0.254c-0.093-.176-0.49-0.963-0.49-0.963-0.05-.115-0.1-0.267-0.1-0.267-0.33-.511-0.64-0.122-0.64-0.122a12.7,12.7,0,0,1-.878,1.153,0.784,0.784,0,0,0-.18.4c-0.171,1.208.433,1.306,0.433,1.306h0Zm1.948,3.078c0.141,0,.176-0.055.159-0.209a0.969,0.969,0,0,0-.438-0.615c-0.646-.386-0.725,0-0.725,0a0.59,0.59,0,0,0,.427.776,3.855,3.855,0,0,0,.577.048h0Zm28.086,2a0.263,0.263,0,0,0-.065.309,6.022,6.022,0,0,1,.343,1.316s0.8,0.142.907-.251a0.627,0.627,0,0,0-.109-0.372,1.359,1.359,0,0,1-.17-0.581s0.012-.945-0.6-0.695a1.13,1.13,0,0,0-.306.273h0Zm-0.972-1.568a0.593,0.593,0,0,0-.495-0.132,0.247,0.247,0,0,0-.153.417,4.805,4.805,0,0,0,.666.786,0.593,0.593,0,0,0,.813-0.065,0.273,0.273,0,0,0-.1-0.492,4.111,4.111,0,0,1-.73-0.515h0Zm-4.668-5.911a5.29,5.29,0,0,1-.486,2.631,0.855,0.855,0,0,0,.018,1.086l0.965,0.561a0.92,0.92,0,0,0,.561.064,0.928,0.928,0,0,1,.793.115,7.9,7.9,0,0,0,.389.922,2.915,2.915,0,0,0,1.167,1.333,1.114,1.114,0,0,1,.755.635,0.726,0.726,0,0,0,.561.368,0.967,0.967,0,0,1,.464.71,3.378,3.378,0,0,1,.1.711,2.061,2.061,0,0,0-.787.05,0.936,0.936,0,0,1-1.1-.372s-0.659-1.129-1.148-.959a1.708,1.708,0,0,1-1.675-.388,2.779,2.779,0,0,0-2.3-.826,3.824,3.824,0,0,1-1.987-.043s-0.955-.5-1.314-0.623a0.715,0.715,0,0,1-.484-0.609,4.644,4.644,0,0,0-.461-0.9l0.723-.008a3.514,3.514,0,0,0,1.767,1.432,3.752,3.752,0,0,0,1.829.046,3.641,3.641,0,0,1,3.292,1.266,0.453,0.453,0,0,0,.51.183,4.181,4.181,0,0,0-2.718-1.794,3.6,3.6,0,0,0-1.121-.047,4.139,4.139,0,0,1-3.682-2.4s0.127-2.111-.43-2.611c0,0-.215-0.066-0.173.343,0,0,.383,2.212-0.336,2.64a1.6,1.6,0,0,1-1.189.206,6.277,6.277,0,0,0-2.121-.117,8.951,8.951,0,0,1-2.721.187,1.859,1.859,0,0,0,.262-1.1s-0.18-.428-0.387-0.153a3.442,3.442,0,0,1-1.805,2.078,1.961,1.961,0,0,0-1.162,1.927,6.065,6.065,0,0,0,1.747.761,0.644,0.644,0,0,0,.774-0.252s0.754-1.616,1.412-1.566l1.234,0.1a0.243,0.243,0,0,1,.11.445,8.781,8.781,0,0,0-.6.9,0.339,0.339,0,0,1-.447.226s-0.55-.273-0.861.751a1.608,1.608,0,0,1-.765.676,1.177,1.177,0,0,1-.872-0.087,20.9,20.9,0,0,1-2.392-1.013,1.159,1.159,0,0,0-.79-0.128,0.793,0.793,0,0,1-.863-0.337l-0.632-.977a1.056,1.056,0,0,1-.12-0.543,0.783,0.783,0,0,1,.2-0.6,1.257,1.257,0,0,0,.276-0.435l0.45-1.058a1.464,1.464,0,0,1,.383-0.4l0.6,0.044a10.029,10.029,0,0,1-.717,1.487,2.37,2.37,0,0,0-.389,1.025,0.849,0.849,0,0,0,.137.4s0.139,0.222.2,0.33a1.517,1.517,0,0,0,.329.483,1.864,1.864,0,0,0,.318.157s0.112,0.031.028-.168a3.228,3.228,0,0,1-.315-1.088,0.721,0.721,0,0,1,.214-0.626,11.268,11.268,0,0,0,.749-1.343,2.038,2.038,0,0,1,.315-0.484,0.269,0.269,0,0,0-.141-0.441,6.825,6.825,0,0,1-1.085-.321,1.451,1.451,0,0,1-.73-1.055,6.524,6.524,0,0,1-.39-1.738,2.842,2.842,0,0,0,.462,3.015,2.165,2.165,0,0,1-1.384,0s-1.219-.178-1.455-0.243c0,0-.306-0.074-0.131.143a2.494,2.494,0,0,1,.4.866,0.646,0.646,0,0,0,.247.432,1.956,1.956,0,0,1,.754.95s0.149,0.447-.158.34a0.56,0.56,0,0,0-.561,0s-0.043.02,0.117,0.2a1.4,1.4,0,0,1,.447.848,2.178,2.178,0,0,1-.224.741,0.471,0.471,0,0,1-.484.178,0.245,0.245,0,0,0-.221-0.021,1.971,1.971,0,0,1-.529-0.133s-0.58-.159-0.774-0.228a4.15,4.15,0,0,0-1.1-.246,1.946,1.946,0,0,0-.539.034,1.942,1.942,0,0,1-1.539-.575s-0.468-.371-0.627-0.011a3.048,3.048,0,0,1-2.943,1.11,4.081,4.081,0,0,0,1.823-1.406,3.371,3.371,0,0,1,.808-1.644s0.231-.317.008-0.4c0,0-.129-0.1-0.412.187a4.941,4.941,0,0,0-.979,1.323,2.035,2.035,0,0,1-2.184.9,3.546,3.546,0,0,0,1.487-1.118,3.687,3.687,0,0,1,1.283-1.718,3.694,3.694,0,0,1,.5-1.73s0.235-1.04.3-1.283a8.572,8.572,0,0,0,.247-1.166,3.3,3.3,0,0,1,.687-2.122,6.466,6.466,0,0,1,1.319-1.686s0.61-.754,1.063-1.215a10.914,10.914,0,0,1,1.9-1.613,8.423,8.423,0,0,0,1.02-.889s2.295-1.652,3.953-.327a8.242,8.242,0,0,0,2.1,1.02,4.188,4.188,0,0,1,2.8,1.593,0.943,0.943,0,0,0,.864.348,3.487,3.487,0,0,1,3.021,1.5,3.2,3.2,0,0,0,1.774.722,3.942,3.942,0,0,1,3.172,1.277s3.157,2.754,5.04.968c0,0,.975-0.924-0.14-2.6a11.808,11.808,0,0,0-1.913-1.745,1.5,1.5,0,0,1-.53-1.762,1.6,1.6,0,0,1,1.7-1.063,5.218,5.218,0,0,0,2.585-1.285s0.832,2.928-2.431,2.878c0,0-.85.126-0.553,0.8a2.512,2.512,0,0,0,.976.787,2.968,2.968,0,0,1,1.429,1.863,2.625,2.625,0,0,1-1.432,3.477,6.126,6.126,0,0,1-2.973.059h0Z" transform="translate(5959.741 -622.608)"/><path class="cls-1" d="M-5922.915,628.459a13.939,13.939,0,0,1,11.656,6.306,1.6,1.6,0,0,1,.326-0.147,14.293,14.293,0,0,0-11.982-6.513,14.293,14.293,0,0,0-11.925,6.423,1.083,1.083,0,0,1,.336.13A13.939,13.939,0,0,1-5922.915,628.459Z" transform="translate(5959.741 -622.608)"/><path class="cls-1" d="M-5910.972,649.588a13.947,13.947,0,0,1-11.943,6.756,13.943,13.943,0,0,1-11.838-6.588,1.141,1.141,0,0,1-.27.233,14.3,14.3,0,0,0,12.108,6.709,14.3,14.3,0,0,0,12.2-6.852A1.579,1.579,0,0,1-5910.972,649.588Z" transform="translate(5959.741 -622.608)"/></svg>