<svg id="Layer_1" data-name="Layer 1" xmlns="http://www.w3.org/2000/svg" viewBox="0 0 612.41 286.47"><defs><style>.cls-1{fill:#6b1826;}</style></defs><title>LandingPageConfetti</title><path class="cls-1" d="M-5674.17,789.3a123.09,123.09,0,0,1-12.85-6.75c5.85-10.52,22.22-21,22.34-31.56a123.09,123.09,0,0,1,12.85,6.75C-5657.68,768.26-5674,778.78-5674.17,789.3Z" transform="translate(6120.37 -595.91)"/><path class="cls-1" d="M-5840.93,694.81a86.33,86.33,0,0,0-9.16,5.83c-12.08-11-8.09-22.1-15.37-33.14a86.38,86.38,0,0,0,9.16-5.83C-5844.22,672.72-5848.21,683.77-5840.93,694.81Z" transform="translate(6120.37 -595.91)"/><path class="cls-1" d="M-5975.61,631.25a43.68,43.68,0,0,1-11.47-8.89c9.71-8.82,27.09-17.63,29-26.45a43.68,43.68,0,0,1,11.47,8.89C-5956.29,613.61-5973.67,622.43-5975.61,631.25Z" transform="translate(6120.37 -595.91)"/><path class="cls-1" d="M-6103,698.51l-11.71,2.14c-6.74-12.29-.4-24.57-5.7-36.86l11.71-2.14C-6101.93,673.94-6108.26,686.23-6103,698.51Z" transform="translate(6120.37 -595.91)"/><path class="cls-1" d="M-5508,648.52c-3.65,1.43-7.12,2.86-10.36,4.29-10-11.72-4.68-23.44-11.32-35.16,3.65-1.43,7.12-2.86,10.36-4.29C-5509.33,625.08-5514.61,636.8-5508,648.52Z" transform="translate(6120.37 -595.91)"/><path class="cls-1" d="M-5589.42,880.24l-11.71,2.14c-6.74-12.29-.4-24.57-5.7-36.86l11.71-2.14C-5588.38,855.66-5594.72,868-5589.42,880.24Z" transform="translate(6120.37 -595.91)"/><path class="cls-1" d="M-5983.38,834.39q-6.71-1.42-13.17-2.84c-0.16-12.15,11.56-24.29,9.39-36.44q6.71,1.42,13.17,2.84C-5973.83,810.09-5985.55,822.24-5983.38,834.39Z" transform="translate(6120.37 -595.91)"/></svg>