<svg id="Layer_1" data-name="Layer 1" xmlns="http://www.w3.org/2000/svg" viewBox="0 0 49.72 40.02"><defs><style>.cls-1{fill:#50bfa1;stroke:#43937a;stroke-miterlimit:10;}.cls-2{fill:#43937a;}</style></defs><title>RSVPspeechbubble</title><g id="Layer_2" data-name="Layer 2"><g id="Layer_1-2" data-name="Layer 1-2"><path class="cls-1" d="M-6679,3655.73l33.84-.93a3.73,3.73,0,0,0,3.62-3.82l-0.61-22.4A3.73,3.73,0,0,0-6646,3625l-40.66,1.12a3.73,3.73,0,0,0-3.62,3.82l0.61,22.4a3.73,3.73,0,0,0,3.82,3.62h0.29l-1.29,7.12a1,1,0,0,0,1,.94,1,1,0,0,0,.74-0.38Z" transform="translate(6690.8 -3624.46)"/><circle class="cls-2" cx="-6665.89" cy="3640.37" r="3.94" transform="translate(6588.44 -3805.93) rotate(-1.57)"/><circle class="cls-2" cx="-6654.29" cy="3639.97" r="3.94" transform="translate(6588.46 -3805.61) rotate(-1.57)"/><circle class="cls-2" cx="-6677.45" cy="3640.76" r="3.94" transform="translate(6588.43 -3806.24) rotate(-1.57)"/></g></g></svg>