<svg id="Layer_1" data-name="Layer 1" xmlns="http://www.w3.org/2000/svg" viewBox="0 0 36.51 73"><defs><style>.cls-1{fill:none;stroke:#40937a;stroke-miterlimit:10;}</style></defs><title>RSVPphone</title><path class="cls-1" d="M-6634.12,3583.53l-22.81.73a3,3,0,0,1-3-2.54l-4.19-29.38-0.3-27.7A4.54,4.54,0,0,1-6660,3520l25-.8a4.54,4.54,0,0,1,4.68,4.3l1.46,27.66-2.33,29.59A3,3,0,0,1-6634.12,3583.53Z" transform="translate(6664.94 -3511.75)"/><path class="cls-1" d="M-6657.48,3512.25h0a1.33,1.33,0,0,1,1.33,1.33V3520a0,0,0,0,1,0,0h-2.66a0,0,0,0,1,0,0v-6.38A1.33,1.33,0,0,1-6657.48,3512.25Z" transform="translate(6549.5 -3722.15) rotate(-1.83)"/><rect class="cls-1" x="-6660.27" y="3530.88" width="26.67" height="16.58" rx="3.7" ry="3.7" transform="translate(6548.77 -3721.8) rotate(-1.83)"/><rect class="cls-1" x="-6651.2" y="3524.82" width="7.62" height="0.76" rx="0.38" ry="0.38" transform="matrix(1, -0.03, 0.03, 1, 6549.21, -3721.82)"/><path class="cls-1" d="M-6649.21,3556.3c0.05,1.59-2.67,1.67-5.27,1.75s-5.28-2.64-5.33-4.24,2.54-1.45,5.14-1.53S-6649.26,3554.71-6649.21,3556.3Z" transform="translate(6664.94 -3511.75)"/><path class="cls-1" d="M-6643.58,3556.12c0.05,1.59,2.77,1.5,5.37,1.41s5.1-3,5-4.57-2.63-1.29-5.23-1.2S-6643.63,3554.53-6643.58,3556.12Z" transform="translate(6664.94 -3511.75)"/><rect class="cls-1" x="-6656.53" y="3562.2" width="6.48" height="3.53" rx="1.77" ry="1.77" transform="translate(6547.97 -3721.99) rotate(-1.83)"/><rect class="cls-1" x="-6649.43" y="3561.97" width="6.48" height="3.53" rx="1.77" ry="1.77" transform="translate(6547.98 -3721.76) rotate(-1.83)"/><rect class="cls-1" x="-6642.26" y="3561.74" width="6.48" height="3.53" rx="1.77" ry="1.77" transform="translate(6548 -3721.54) rotate(-1.83)"/><rect class="cls-1" x="-6656.38" y="3566.94" width="6.48" height="3.53" rx="1.77" ry="1.77" transform="translate(6547.82 -3721.98) rotate(-1.83)"/><rect class="cls-1" x="-6649.27" y="3566.72" width="6.48" height="3.53" rx="1.77" ry="1.77" transform="translate(6547.83 -3721.76) rotate(-1.83)"/><rect class="cls-1" x="-6642.11" y="3566.49" width="6.48" height="3.53" rx="1.77" ry="1.77" transform="translate(6547.84 -3721.53) rotate(-1.83)"/><rect class="cls-1" x="-6656.23" y="3571.62" width="6.48" height="3.53" rx="1.77" ry="1.77" transform="translate(6547.67 -3721.98) rotate(-1.83)"/><rect class="cls-1" x="-6649.13" y="3571.4" width="6.48" height="3.53" rx="1.77" ry="1.77" transform="translate(6547.68 -3721.75) rotate(-1.83)"/><rect class="cls-1" x="-6641.96" y="3571.17" width="6.48" height="3.53" rx="1.77" ry="1.77" transform="translate(6547.7 -3721.52) rotate(-1.83)"/></svg>