<svg id="Layer_1" data-name="Layer 1" xmlns="http://www.w3.org/2000/svg" viewBox="0 0 51.32 44.51"><defs><style>.cls-1{fill:#50bfa1;}.cls-2{fill:#43937a;}.cls-3{fill:none;stroke:#43937a;stroke-miterlimit:10;}</style></defs><title>RSVPletter</title><g id="Layer_2" data-name="Layer 2"><g id="Layer_1-2" data-name="Layer 1-2"><polygon class="cls-1" points="8.19 15.62 7.92 16.89 6.09 15.56 8.19 15.62"/><polygon class="cls-1" points="25.73 29.71 48.68 17.9 48.69 17.86 50.71 16.82 45.22 44 0.61 42.74 6.09 15.56 7.92 16.89 7.92 16.9 10.49 18.75 25.73 29.71"/><polygon class="cls-1" points="8.48 14.23 8.19 15.62 6.09 15.56 8.48 14.23"/><polygon class="cls-2" points="7.92 16.89 10.49 18.75 7.92 16.9 7.92 16.89"/><polygon class="cls-2" points="49.18 15.39 48.9 16.77 8.19 15.62 8.48 14.23 14.16 11.05 45.47 11.93 49.18 15.39"/><polygon class="cls-2" points="48.9 16.77 48.69 17.86 25.73 29.71 10.49 18.75 7.92 16.89 8.19 15.62 48.9 16.77"/><polygon class="cls-2" points="9.17 10.91 14.16 11.05 8.48 14.23 9.17 10.91"/><polygon class="cls-1" points="50.71 16.82 48.69 17.86 48.9 16.77 50.71 16.82"/><polygon class="cls-1" points="50.71 16.82 48.9 16.77 49.18 15.39 50.71 16.82"/><polygon class="cls-2" points="49.84 12.05 49.18 15.39 45.47 11.93 49.84 12.05"/><polygon class="cls-2" points="48.69 17.86 48.68 17.9 25.73 29.71 48.69 17.86"/><polygon class="cls-1" points="45.47 11.93 14.16 11.05 33.14 0.44 45.47 11.93"/><polyline class="cls-3" points="33.14 0.44 14.16 11.05 8.48 14.23 6.09 15.56"/><polyline class="cls-3" points="33.14 0.44 45.47 11.93 49.18 15.39 50.71 16.82"/><polygon class="cls-3" points="50.71 16.82 45.22 44 0.61 42.74 6.09 15.56 8.19 15.62 48.9 16.77 50.71 16.82"/><polygon class="cls-3" points="48.69 17.86 48.68 17.9 25.73 29.71 10.49 18.75 7.92 16.9 7.92 16.89 8.19 15.62 8.48 14.23 9.17 10.91 14.16 11.05 45.47 11.93 49.84 12.05 49.18 15.39 48.9 16.77 48.69 17.86"/><polyline class="cls-3" points="50.71 16.82 48.69 17.86 25.73 29.71"/><polyline class="cls-3" points="6.09 15.56 7.92 16.89 10.49 18.75 25.59 29.71"/><line class="cls-3" x1="0.61" y1="42.74" x2="50.71" y2="16.82"/><line class="cls-3" x1="6.09" y1="15.56" x2="45.22" y2="44"/></g></g></svg>