<svg xmlns="http://www.w3.org/2000/svg" viewBox="0 0 612.41 286.47"><defs><style>.cls-1{fill:#6c1726;}</style></defs><title>Confetti</title><g id="Layer_2" data-name="Layer 2"><g id="Layer_1-2" data-name="Layer 1"><path class="cls-1" d="M446.21,193.39a122.72,122.72,0,0,1-12.86-6.75c5.85-10.52,22.22-21,22.34-31.56a123.73,123.73,0,0,1,12.86,6.75C462.7,172.35,446.33,182.87,446.21,193.39Z"/><path class="cls-1" d="M279.44,98.9a87.39,87.39,0,0,0-9.15,5.83c-12.08-11-8.1-22.09-15.37-33.14a87,87,0,0,0,9.16-5.83C276.16,76.81,272.17,87.86,279.44,98.9Z"/><path class="cls-1" d="M144.76,35.34a43.88,43.88,0,0,1-11.47-8.89C143,17.63,160.38,8.82,162.32,0a43.54,43.54,0,0,1,11.47,8.89C164.08,17.71,146.7,26.52,144.76,35.34Z"/><path class="cls-1" d="M17.41,102.61q-5.91,1.06-11.71,2.14C-1,92.46,5.3,80.18,0,67.89l11.71-2.14C18.45,78,12.11,90.32,17.41,102.61Z"/><path class="cls-1" d="M612.41,52.61c-3.65,1.43-7.12,2.86-10.36,4.29-10-11.72-4.68-23.44-11.32-35.16,3.65-1.43,7.12-2.86,10.36-4.29C611.05,29.17,605.77,40.89,612.41,52.61Z"/><path class="cls-1" d="M531,284.33q-5.93,1.07-11.71,2.14c-6.74-12.28-.4-24.57-5.7-36.86q5.91-1.06,11.7-2.14C532,259.75,525.66,272,531,284.33Z"/><path class="cls-1" d="M137,238.48q-6.7-1.42-13.18-2.85c-.16-12.14,11.57-24.29,9.4-36.44,4.47.95,8.85,1.9,13.17,2.85C146.55,214.18,134.82,226.33,137,238.48Z"/></g></g></svg>