<svg id="Layer_1" data-name="Layer 1" xmlns="http://www.w3.org/2000/svg" viewBox="0 0 138.778 39.587"><defs><style>.cls-1{fill:#e8a331;}</style></defs><title>CURATES</title><path class="cls-1" d="M-5722.369,662.109a3.47,3.47,0,0,1-4.085-2.066,17.573,17.573,0,0,1-.711-9.023,49.212,49.212,0,0,1,1-4.9,2.26,2.26,0,0,0-1.085-2.783,16.052,16.052,0,0,1-1.324-.995c-0.548.626-1.04,1.292-1.633,1.851-2.5,2.36-4.939,4.811-7.607,6.973a10.168,10.168,0,0,1-4.328,1.887,3.967,3.967,0,0,1-4.8-4.923l0.456,0.986v-2.552c-0.369.445-.569,0.7-0.786,0.944-1.425,1.594-2.8,3.24-4.306,4.754a10.08,10.08,0,0,1-2.583,1.789c-2.749,1.394-5.175.312-5.792-2.7a22.269,22.269,0,0,1-.122-4.43,10.694,10.694,0,0,1,.23-1.52,1.9,1.9,0,0,0-.413.2,35.338,35.338,0,0,1-11.192,7.028,11.147,11.147,0,0,1-5.224.828,5.157,5.157,0,0,1-4.81-6.829,9.737,9.737,0,0,1,3.4-5.42c1.132-.836,2.112-1.879,3.253-2.7a2.718,2.718,0,0,1,1.72-.391A6.6,6.6,0,0,1-5769,639.9c0.95,0.935.958,1.479,0,2.359-0.807.74-1.708,1.377-2.814,2.256,0.152-1.894.754-3.419-.009-5.061a5,5,0,0,0-.957.676c-1.391,1.659-2.776,3.325-4.109,5.03a3.856,3.856,0,0,0-.649,1.49c-0.89,3.9.345,5.114,3.55,4.475a41.311,41.311,0,0,0,7.773-2.7,24.521,24.521,0,0,0,4.187-2.533,7.871,7.871,0,0,0,3.381-4.372c0.49-1.7,1.29-3.3,2.043-5.168a35.741,35.741,0,0,1,2.87,2.2,1.551,1.551,0,0,1,0,1.306,37.1,37.1,0,0,1-2.655,5.961c-1.384,2.174-.639,4.42-0.79,6.629-0.055.8,0.587,1.054,1.285,0.522a15.159,15.159,0,0,0,2.834-2.525c2.438-3.112,4.754-6.321,7.111-9.5,0.277-.374.519-0.774,0.862-1.29,1.323,1.282,3.025,2.152,2.9,4.246a4.262,4.262,0,0,1-.651,1.8,5.5,5.5,0,0,0-.765,4.377,1.964,1.964,0,0,0,2.8,1.552,8.844,8.844,0,0,0,2.478-1.328,45.082,45.082,0,0,0,7.968-8.018,1.533,1.533,0,0,0,.126-2.085,10.262,10.262,0,0,1,.815-12.091,1.382,1.382,0,0,1,1.949-.368,4.306,4.306,0,0,1,2.522,4.064,13.529,13.529,0,0,1-1.331,6.768c-0.658,1.408-.147,2.427,1.186,3.17a14.1,14.1,0,0,1,3.28,2.563,2.571,2.571,0,0,1,.288,2.024c-0.4,1.766-1.058,3.474-1.485,5.236a54.053,54.053,0,0,0-1.207,6.067A4.319,4.319,0,0,0-5722.369,662.109Zm-5.54-24.12c1.031-1.81,1.5-3.994,1.115-5.24C-5727.748,634.382-5728.926,635.85-5727.909,637.989Zm2.241,16.461c-0.265,2.238-.189,2.907.44,3.764Z" transform="translate(5781.74 -622.608)"/><path class="cls-1" d="M-5688.016,631.775c-2,.158-3.807.248-5.6,0.455a10.533,10.533,0,0,1-6.787-1.466c-0.484-.288-1.123-0.58-0.315-1.362,0.961,0.972,2.023.519,3.137,0.27a42.12,42.12,0,0,1,5.007-.828c1.8-.179,3.624-0.207,5.439-0.236a1.573,1.573,0,0,0,1.442-.918c0.9-1.451,1.861-2.859,2.812-4.276a9.621,9.621,0,0,1,.675-0.808c1.036,0.867,1.179,1.515.642,2.591-0.447.9-.888,1.8-1.259,2.548,4.641-.118,9.221-0.236,13.8-0.34a1.274,1.274,0,0,1,.206.386l-5.211.854,0.017,0.242,1.406,0.42c-2.516.44-4.723,0.835-6.933,1.209-1.324.224-2.663,0.373-3.976,0.648a1.532,1.532,0,0,0-1.01.745,70.361,70.361,0,0,0-4.711,22.278,15.828,15.828,0,0,0,.607,4.27,2.019,2.019,0,0,0,2.409,1.754,2.162,2.162,0,0,1-2.922.743,6.563,6.563,0,0,1-3.01-3.046c-1.452-2.791-1.517-5.788-1.254-8.825a10.039,10.039,0,0,0,.07-2.052c-0.227.279-.433,0.58-0.685,0.835a70.342,70.342,0,0,1-5.1,5.019,11.039,11.039,0,0,1-3.968,1.946c-3.773,1.053-6.852-1.246-7.138-5.152-0.025-.348-0.044-0.7-0.093-1.467a11.888,11.888,0,0,0-2.329,1.894c-1.021,1.45-1.714,1.973-2.94,1.707-1.9-.412-2.981-1.492-3.129-3.147a4.534,4.534,0,0,1,.025-0.977,12.457,12.457,0,0,1,8.443-9.543,2.757,2.757,0,0,1,3.125,1.1c0.482-.783.9-1.449,1.3-2.122a0.75,0.75,0,0,1,1.257-.256,2.171,2.171,0,0,0,.183.118c2.022,1.243,2.132,1.483,1.258,3.665-0.769,1.921-1.7,3.781-2.4,5.723a20.993,20.993,0,0,0-1.2,4.6c-0.2,1.712.821,2.627,2.556,2.64a8.42,8.42,0,0,0,4.9-1.582,22.279,22.279,0,0,0,6.735-7.6,18.26,18.26,0,0,0,.68-2.7c1.069-2.931,2.206-5.837,3.322-8.75C-5688.409,632.654-5688.255,632.331-5688.016,631.775Zm-27.025,17.469c4.085-2.035,6.721-4.852,7.493-9.255-2.245-.178-3.708,1.1-4.965,2.712C-5713.958,644.549-5715.162,646.509-5715.041,649.244Zm23.178-1.728c-0.953,2.985-.975,3.857,0,5.895v-5.895Z" transform="translate(5781.74 -622.608)"/><path class="cls-1" d="M-5652.635,639.071c-1.843,1.541-3.552,2.993-5.288,4.413-1.153.944-1.308,1.547-.358,2.7,1.2,1.457,2.482,2.843,3.778,4.214a1.187,1.187,0,0,0,.98.182,62.906,62.906,0,0,0,6.354-1.778,31.032,31.032,0,0,0,4.207-2.322,2.829,2.829,0,0,1-1.48,1.911c-1.39.775-2.833,1.464-4.294,2.1-1.3.563-2.641,1.022-3.978,1.485a0.726,0.726,0,0,0-.589,1.028,4.2,4.2,0,0,1-1.628,4.54,17.245,17.245,0,0,1-7.545,3.209,4.625,4.625,0,0,1-3.709-2.113,1.734,1.734,0,0,1,.244-1.356,14.741,14.741,0,0,1,8.279-5.851c0.313-.092.626-0.185,0.935-0.29a1.976,1.976,0,0,0,.336-0.353l-4.751-4.886c-1.73,1.214-3.49,2.421-5.22,3.669a25.487,25.487,0,0,1-9.187,4.6,9.783,9.783,0,0,1-5.27-.139,4.973,4.973,0,0,1-3.758-4.809c-0.112-5.164,2.2-9.152,6.331-12.1a3.1,3.1,0,0,1,4.031.2,3.233,3.233,0,0,0,.456.28,0.771,0.771,0,0,0,.226-0.03l0.146-1.743a2.758,2.758,0,0,1,3.008,3.818,7.08,7.08,0,0,1-1.9,2.6c-2.141,1.718-4.394,3.339-7.247,3.674a1.337,1.337,0,0,0-1.263,1.108c-0.5,1.705-1,3.451.368,4.951,1.325,1.453,3.162,1.389,4.78.837a35.81,35.81,0,0,0,6.729-2.981,63.8,63.8,0,0,0,6.478-4.772,1.557,1.557,0,0,0,.428-1.269,2.865,2.865,0,0,1,.581-2.557c1.258-1.4,2.564-2.763,3.883-4.109a1.091,1.091,0,0,1,.861-0.312A7.986,7.986,0,0,1-5652.635,639.071Zm-27.3,6.426c2.24-1.692,4.21-3.261,5.514-5.69C-5676.717,640.143-5679.311,642.8-5679.937,645.5Zm18.394,11.583c2.417-.248,4.608-1.831,4.885-3.513C-5658.465,654.475-5660.217,655.292-5661.543,657.079Z" transform="translate(5781.74 -622.608)"/></svg>