<svg xmlns="http://www.w3.org/2000/svg" viewBox="0 0 36.19 34.19"><defs><style>.cls-1{fill:#919191;}.cls-2{fill:none;stroke:#161616;stroke-miterlimit:10;}</style></defs><title>Mandala</title><g id="Layer_2" data-name="Layer 2"><g id="Layer_1-2" data-name="Layer 1"><path class="cls-1" d="M17.94,11.29l3.29-6.13a3.2,3.2,0,0,0,.5-1.72A3.54,3.54,0,0,0,18.09,0a3.54,3.54,0,0,0-3.63,3.44,3.12,3.12,0,0,0,.24,1.22h0v0c.06.13.12.26.19.38Z"/><path class="cls-1" d="M8.61,8A2.25,2.25,0,0,0,9,8.2l5.91,3.94L14.5,5.28A3.23,3.23,0,0,0,14,3.55a3.74,3.74,0,0,0-5-1.26A3.33,3.33,0,0,0,7.72,7a3.37,3.37,0,0,0,.85.95h0Z"/><path class="cls-1" d="M5.49,13.7l7.2.62-4-5.76A3.47,3.47,0,0,0,7.39,7.29a3.76,3.76,0,0,0-5,1.26,3.34,3.34,0,0,0,1.33,4.69A3.85,3.85,0,0,0,5,13.66H5A3.42,3.42,0,0,0,5.49,13.7Z"/><path class="cls-1" d="M5,20.29a3,3,0,0,0,.41-.18L12,17.24,5.46,14.13a3.73,3.73,0,0,0-1.82-.47A3.54,3.54,0,0,0,0,17.1a3.54,3.54,0,0,0,3.64,3.43,3.69,3.69,0,0,0,1.29-.23h0Z"/><path class="cls-1" d="M8.42,26.06c.09-.11.18-.22.26-.34l4.17-5.59-7.27.36A3.88,3.88,0,0,0,3.75,21a3.35,3.35,0,0,0-1.33,4.7,3.76,3.76,0,0,0,5,1.25,3.33,3.33,0,0,0,1-.81h0Z"/><path class="cls-1" d="M14.5,29l.65-6.81L9.06,26a3.52,3.52,0,0,0-1.34,1.26A3.32,3.32,0,0,0,9.05,31.9a3.74,3.74,0,0,0,5-1.25,3.4,3.4,0,0,0,.44-1.18h0v0A3,3,0,0,0,14.5,29Z"/><path class="cls-1" d="M21.49,29.53h0l0,0a1.93,1.93,0,0,0-.19-.38l-3-6.2L15,29a3.32,3.32,0,0,0-.49,1.73,3.53,3.53,0,0,0,3.63,3.43,3.54,3.54,0,0,0,3.64-3.43A3.37,3.37,0,0,0,21.49,29.53Z"/><path class="cls-1" d="M28.47,27.21a3.55,3.55,0,0,0-.86-.95h0l0,0L27.21,26,21.3,22.05l.39,6.87a3.33,3.33,0,0,0,.48,1.73,3.76,3.76,0,0,0,5,1.25A3.33,3.33,0,0,0,28.47,27.21Z"/><path class="cls-1" d="M32.43,21a3.85,3.85,0,0,0-1.24-.41h-.05l-.44,0-7.21-.62,4,5.77a3.51,3.51,0,0,0,1.33,1.26,3.76,3.76,0,0,0,5-1.25A3.34,3.34,0,0,0,32.43,21Z"/><path class="cls-1" d="M32.55,13.66a3.74,3.74,0,0,0-1.3.23h0c-.14.06-.27.11-.4.18L24.24,17l6.48,3.12a3.85,3.85,0,0,0,1.83.46,3.54,3.54,0,0,0,3.64-3.43A3.54,3.54,0,0,0,32.55,13.66Z"/><path class="cls-1" d="M33.76,8.55a3.76,3.76,0,0,0-5-1.26,3.82,3.82,0,0,0-1,.81h0l0,0c-.09.11-.17.23-.25.35l-4.17,5.59,7.26-.37a3.77,3.77,0,0,0,1.83-.46A3.33,3.33,0,0,0,33.76,8.55Z"/><path class="cls-1" d="M27.14,2.29a3.75,3.75,0,0,0-5,1.26,3.28,3.28,0,0,0-.44,1.17h0v0a1.84,1.84,0,0,0,0,.41L21,12l6.1-3.75A3.45,3.45,0,0,0,28.47,7,3.33,3.33,0,0,0,27.14,2.29Z"/><ellipse class="cls-1" cx="18.07" cy="16.95" rx="2.02" ry="1.91"/><ellipse class="cls-2" cx="18.18" cy="17.24" rx="12.96" ry="12.25"/></g></g></svg>