<svg id="Layer_1" data-name="Layer 1" xmlns="http://www.w3.org/2000/svg" viewBox="0 0 15.11 80.51"><defs><style>.cls-1{fill:#b69745;}</style></defs><title>CollabFork</title><path class="cls-1" d="M-6579.25,2252.52h-1c-2.26,0-2.82-8.2-2.78-10.46l0.88-20.66,0-29.43,3.39,0,0.77,29.57,1.33,21.24C-6576.56,2245-6577,2252.5-6579.25,2252.52Z" transform="translate(6587.86 -2172.02)"/><path class="cls-1" d="M-6575,2172l-2.34,13.17-3.13-13.13h0l-2.93,13.21-2.59-13.17h0l-1.89,16.45a4.31,4.31,0,0,0,4.35,4.28l6.48-.06a4.31,4.31,0,0,0,4.28-4.35L-6575,2172h0Z" transform="translate(6587.86 -2172.02)"/></svg>