<svg id="Layer_1" data-name="Layer 1" xmlns="http://www.w3.org/2000/svg" viewBox="0 0 18.88 77.42"><defs><style>.cls-1{fill:#dbb64f;stroke:#b69745;stroke-miterlimit:10;}.cls-2{fill:#b69745;}</style></defs><title>CollabBarber</title><g id="Layer_2" data-name="Layer 2"><g id="Layer_1-2" data-name="Layer 1-2"><circle class="cls-1" cx="-6628.32" cy="2172.67" r="6.49" transform="translate(6628.21 -2131.55) rotate(-0.25)"/><rect class="cls-1" x="-6635.15" y="2118.67" width="13.26" height="52.22" transform="translate(6628.33 -2131.55) rotate(-0.25)"/><polygon class="cls-2" points="15.83 18.52 2.61 29.1 2.64 35.25 15.85 24.67 15.83 18.52"/><polygon class="cls-2" points="15.84 6.21 2.63 16.8 2.65 22.95 15.87 12.37 15.84 6.21"/><polygon class="cls-2" points="15.95 30.68 2.73 41.27 2.76 47.42 15.98 36.84 15.95 30.68"/><polygon class="cls-2" points="16 42.99 2.79 53.57 2.82 59.73 16.03 49.14 16 42.99"/><polygon class="cls-2" points="16.06 55.16 2.84 65.74 2.86 70.3 2.86 70.53 5.43 69.84 16.08 61.31 16.06 55.16"/><path class="cls-1" d="M-6635.85,2171l15-.07a1.3,1.3,0,0,1,1.3,1.29h0a1.3,1.3,0,0,1-1.29,1.3l-15,.07a1.3,1.3,0,0,1-1.3-1.29h0A1.3,1.3,0,0,1-6635.85,2171Z" transform="translate(6637.89 -2102.25)"/><path class="cls-1" d="M-6633.43,2117.43a8.13,8.13,0,0,1-1.72-11.37,8.13,8.13,0,0,1,11.37-1.72,8.13,8.13,0,0,1,1.72,11.37,8.13,8.13,0,0,1-1.34,1.42" transform="translate(6637.89 -2102.25)"/><path class="cls-1" d="M-6636.09,2116l15-.07a1.3,1.3,0,0,1,1.3,1.29h0a1.3,1.3,0,0,1-1.29,1.3l-15,.07a1.3,1.3,0,0,1-1.3-1.29h0A1.3,1.3,0,0,1-6636.09,2116Z" transform="translate(6637.89 -2102.25)"/></g></g></svg>