<svg id="Layer_1" data-name="Layer 1" xmlns="http://www.w3.org/2000/svg" viewBox="0 0 33.31 65.06"><defs><style>.cls-1{fill:none;}.cls-1,.cls-2{stroke:#b69745;stroke-miterlimit:10;}.cls-2{fill:#dbb64f;}</style></defs><title>CollabNailPolish</title><g id="Layer_2" data-name="Layer 2"><g id="Layer_1-2" data-name="Layer 1-2"><line class="cls-1" x1="27.46" y1="6.91" x2="14.68" y2="31.41"/><path class="cls-2" d="M-6594.81,1918.89l9.28,0.15a0.72,0.72,0,0,1,.71.73h0a0.72,0.72,0,0,1-.73.71l-9.28-.15a0.72,0.72,0,0,1-.71-0.73h0A0.72,0.72,0,0,1-6594.81,1918.89Z" transform="translate(6605.34 -1886.23)"/><path class="cls-2" d="M-6594.78,1917.45l9.28,0.15a0.72,0.72,0,0,1,.71.73h0a0.72,0.72,0,0,1-.73.71l-9.28-.15a0.72,0.72,0,0,1-.71-0.73h0A0.72,0.72,0,0,1-6594.78,1917.45Z" transform="translate(6605.34 -1886.23)"/><path class="cls-2" d="M-6594.76,1916l9.28,0.15a0.72,0.72,0,0,1,.71.73h0a0.72,0.72,0,0,1-.73.71l-9.28-.15a0.72,0.72,0,0,1-.71-0.73h0A0.72,0.72,0,0,1-6594.76,1916Z" transform="translate(6605.34 -1886.23)"/><path class="cls-2" d="M-6590.43,1950.65l8.91,0.14a1.62,1.62,0,0,0,1.61-1.28l4.41-26.13a2.29,2.29,0,0,0-1.75-2.72,2.29,2.29,0,0,0-.45-0.05l-24.81-.4a2.29,2.29,0,0,0-2.32,2.25,2.29,2.29,0,0,0,0,.45l3.56,26.26a1.62,1.62,0,0,0,1.57,1.33Z" transform="translate(6605.34 -1886.23)"/><polyline class="cls-2" points="22.38 29.33 32.68 3.48 29.98 2.06 27.29 0.65 11.89 23.83"/><path class="cls-2" d="M-6594.89,1910.57h0a1.12,1.12,0,0,1,1.51-.47l10.34,5.42a1.12,1.12,0,0,1,.47,1.51h0a1.12,1.12,0,0,1-1.51.47l-10.34-5.42A1.12,1.12,0,0,1-6594.89,1910.57Z" transform="translate(6605.34 -1886.23)"/></g></g></svg>