<svg id="Layer_1" data-name="Layer 1" xmlns="http://www.w3.org/2000/svg" viewBox="0 0 36.98 36.98"><defs><style>.cls-1{fill:none;stroke:#993e3c;stroke-miterlimit:10;}</style></defs><title>WWWclock</title><circle class="cls-1" cx="-6204.56" cy="1165.99" r="17.99" transform="translate(692.73 -6258.57) rotate(-73.23)"/><line class="cls-1" x1="13.98" y1="33.46" x2="14.68" y2="31.12"/><line class="cls-1" x1="22.07" y1="33.71" x2="21.51" y2="31.34"/><line class="cls-1" x1="29.2" y1="29.88" x2="27.53" y2="28.11"/><line class="cls-1" x1="33.46" y1="23" x2="31.12" y2="22.3"/><line class="cls-1" x1="33.71" y1="14.92" x2="31.34" y2="15.47"/><line class="cls-1" x1="29.88" y1="7.79" x2="28.11" y2="9.46"/><line class="cls-1" x1="23" y1="3.53" x2="22.3" y2="5.86"/><line class="cls-1" x1="14.92" y1="3.28" x2="15.47" y2="5.65"/><line class="cls-1" x1="7.79" y1="7.1" x2="9.46" y2="8.88"/><line class="cls-1" x1="3.53" y1="13.98" x2="5.86" y2="14.68"/><line class="cls-1" x1="3.28" y1="22.07" x2="5.65" y2="21.51"/><line class="cls-1" x1="7.1" y1="29.2" x2="8.88" y2="27.53"/><circle class="cls-1" cx="-6204.56" cy="1165.99" r="0.77" transform="translate(692.73 -6258.57) rotate(-73.23)"/><line class="cls-1" x1="18.82" y1="18.94" x2="22.05" y2="24.95"/><line class="cls-1" x1="18.56" y1="18.45" x2="5.49" y2="16.54"/></svg>